<?xml version="1.0" encoding="utf-8"?>
<!-- Generator: Adobe Illustrator 27.1.1, SVG Export Plug-In . SVG Version: 6.00 Build 0)  -->
<svg version="1.1" id="Слой_1" xmlns="http://www.w3.org/2000/svg" xmlns:xlink="http://www.w3.org/1999/xlink" x="0px" y="0px"
	 viewBox="0 0 3840 2160" style="enable-background:new 0 0 3840 2160;" xml:space="preserve">
<style type="text/css">
	.st0{fill:url(#SVGID_1_);}
	.st1{fill:url(#SVGID_00000165923952353397335470000003384557103394433942_);}
	.st2{fill:url(#SVGID_00000161598578231477813570000001670881304884700306_);}
	.st3{fill:url(#SVGID_00000062157541195070805930000004140593685946396321_);}
	.st4{fill:url(#SVGID_00000003096856566978342870000001411472986916530855_);}
	.st5{fill:url(#SVGID_00000169522460391766477310000014788777495441060022_);}
	.st6{fill:url(#SVGID_00000029736283434596330410000002708651741456060601_);}
</style>
<linearGradient id="SVGID_1_" gradientUnits="userSpaceOnUse" x1="-1498.1844" y1="1863.9597" x2="2340.99" y2="1863.9597" gradientTransform="matrix(1 0 0 -1 1499.01 2944.3999)">
	<stop  offset="0" style="stop-color:#F0F0F0"/>
	<stop  offset="1" style="stop-color:#D4D4D4"/>
</linearGradient>
<rect x="0.83" y="0.88" class="st0" width="3839.17" height="2159.12"/>
<linearGradient id="SVGID_00000078005298753304833040000017943198259382273686_" gradientUnits="userSpaceOnUse" x1="-999.3344" y1="1421.5671" x2="983.8793" y2="2656.8455" gradientTransform="matrix(1 0 0 -1 1499.01 2944.3999)">
	<stop  offset="0.1823" style="stop-color:#D3D3D3"/>
	<stop  offset="1" style="stop-color:#F0F0F0"/>
</linearGradient>
<path style="fill:url(#SVGID_00000078005298753304833040000017943198259382273686_);" d="M1.4,0.88
	c0,185.96,501.32,43.91,501.32,441.9c0,398,64.99,565.88,980.79,565.88c530.84,0,667.26,191.16,797.1,373.1
	c117.88,165.18,230.33,322.75,627.6,322.75c393.26,0,520.61-183.96,644.36-362.71c76.52-110.53,151.67-219.07,287.44-280.89V0.88
	H1.4z"/>
<linearGradient id="SVGID_00000065764779811428353460000006470872820888998066_" gradientUnits="userSpaceOnUse" x1="-1611.7932" y1="2404.8569" x2="371.4204" y2="3640.1353" gradientTransform="matrix(1 0 0 -1 1499.01 2944.3999)">
	<stop  offset="0.1823" style="stop-color:#D3D3D3"/>
	<stop  offset="1" style="stop-color:#F0F0F0"/>
</linearGradient>
<path style="fill:url(#SVGID_00000065764779811428353460000006470872820888998066_);" d="M1.82,0.88h-1v935.8L1.82,0.88z"/>
<linearGradient id="SVGID_00000109744000628645719160000015782749143386703006_" gradientUnits="userSpaceOnUse" x1="-228.1983" y1="183.5244" x2="1755.0153" y2="1418.8027" gradientTransform="matrix(1 0 0 -1 1499.01 2944.3999)">
	<stop  offset="0.1823" style="stop-color:#D1D1D1"/>
	<stop  offset="1" style="stop-color:#CFCFCF"/>
</linearGradient>
<path style="fill:url(#SVGID_00000109744000628645719160000015782749143386703006_);" d="M3485.56,1366.3
	c95.32-121.05,191.86-243.67,354.44-309.19v3.8c-135.77,61.82-210.91,170.36-287.44,280.89
	c-123.75,178.75-251.11,362.71-644.36,362.71C3219.23,1704.51,3351.17,1536.97,3485.56,1366.3z"/>
<linearGradient id="SVGID_00000084530127612616422630000002481677832107614607_" gradientUnits="userSpaceOnUse" x1="-863.8708" y1="1204.0833" x2="1119.3428" y2="2439.3616" gradientTransform="matrix(1 0 0 -1 1499.01 2944.3999)">
	<stop  offset="0.1823" style="stop-color:#D1D1D1"/>
	<stop  offset="1" style="stop-color:#CFCFCF"/>
</linearGradient>
<path style="fill:url(#SVGID_00000084530127612616422630000002481677832107614607_);" d="M502.72,442.79
	c0,338.01,64.99,505.89,980.79,505.89c546.06,0,702.37,219.73,846.44,422.24c123.13,173.09,237.32,333.6,578.26,333.6
	c-397.26,0-509.71-157.57-627.6-322.75c-129.84-181.93-266.26-373.1-797.1-373.1C567.7,1008.66,502.72,840.78,502.72,442.79z"/>
<linearGradient id="SVGID_00000119093390509127140990000008072772419060220090_" gradientUnits="userSpaceOnUse" x1="-1611.7932" y1="2404.8569" x2="371.4204" y2="3640.1353" gradientTransform="matrix(1 0 0 -1 1499.01 2944.3999)">
	<stop  offset="0.1823" style="stop-color:#D1D1D1"/>
	<stop  offset="1" style="stop-color:#CFCFCF"/>
</linearGradient>
<path style="fill:url(#SVGID_00000119093390509127140990000008072772419060220090_);" d="M0.83,936.68L1.81,9.93
	c6.41,68.22,86.27,88.93,180.41,113.34c143.63,37.24,320.5,83.11,320.5,319.51c0-275.36-170.52-332.31-365.62-397.48
	c-16.03-5.35-32.36-10.24-48.81-15.17C59.19,21.43,29.71,12.6,0.83,0.88V936.68z"/>
<linearGradient id="SVGID_00000077304751419933918180000004373617434538633879_" gradientUnits="userSpaceOnUse" x1="420.5772" y1="2944.3999" x2="420.5772" y2="784.4" gradientTransform="matrix(1 0 0 -1 1499.01 2944.3999)">
	<stop  offset="0" style="stop-color:#DEEDFF;stop-opacity:0.6"/>
	<stop  offset="1" style="stop-color:#A6CCFA;stop-opacity:0.5"/>
</linearGradient>
<rect style="fill:url(#SVGID_00000077304751419933918180000004373617434538633879_);" width="3839.17" height="2160"/>
</svg>
